<?xml version="1.0" encoding="utf-8"?><svg viewBox="0 0 423 38" xmlns="http://www.w3.org/2000/svg" xmlns:xlink="http://www.w3.org/1999/xlink"><style>:root>svg{display:none}:root>svg:target{display:block}</style><svg viewBox="0 0 12 12" id="arrow" xmlns="http://www.w3.org/2000/svg"><path d="M1 10.796l10-10M1 .796h10v10"/></svg><svg viewBox="0 0 17 16" id="check" xmlns="http://www.w3.org/2000/svg"><path d="M13.815 4l-7.333 7.333L3.148 8"/></svg><svg viewBox="0 0 12 23" id="facebook" xmlns="http://www.w3.org/2000/svg"><path d="M7.714 23V12.778h3.429L12 8.518H7.714V6.816c0-1.704.86-2.556 2.572-2.556H12V0H8.571C5.421 0 3.43 2.454 3.43 5.963v2.556H0v4.259h3.429V23h4.285z"/></svg><svg viewBox="0 0 20 20" id="instagram" xmlns="http://www.w3.org/2000/svg"><path d="M14.627 0H5.174C2.29 0 0 2.4 0 5.4v9.2c0 2.9 2.289 5.3 5.274 5.4h9.452C17.612 20 20 17.6 20 14.6V5.4c-.1-3-2.388-5.4-5.373-5.4zm3.482 14.5c0 2-1.592 3.7-3.681 3.7H5.373c-1.99 0-3.681-1.7-3.582-3.7v-9c0-2 1.592-3.7 3.582-3.7h9.055c1.99 0 3.681 1.7 3.681 3.7v9z"/><path d="M10.098 5.003c-2.743-.098-5.095 2.156-5.095 4.9C4.905 12.649 7.16 15 9.902 15s5.095-2.156 5.095-4.9v-.098c.098-2.745-2.156-4.999-4.899-4.999zm0 8.233A3.33 3.33 0 016.767 10.1a3.331 3.331 0 013.135-3.333c1.764-.098 3.233 1.372 3.331 3.137v.098c.098 1.764-1.371 3.234-3.135 3.234zM15 3c.546 0 1 .417 1 1s-.454 1-1 1-1-.417-1-1 .454-1 1-1z"/></svg><svg viewBox="0 0 423 6" id="line" xmlns="http://www.w3.org/2000/svg"><path opacity=".5" d="M.113 3L3 5.887 5.887 3 3 .113.113 3zM423 3l-5-2.887v5.774L423 3zM3 3.5h415.5v-1H3v1z"/></svg><svg viewBox="0 0 15 20" id="play" xmlns="http://www.w3.org/2000/svg"><path d="M.334.667l14 9.333-14 9.333V.667z"/></svg><svg viewBox="0 0 21 21" id="search" xmlns="http://www.w3.org/2000/svg"><circle cx="9.766" cy="9.766" r="8.989"/><path d="M16.018 16.485L19.542 20"/></svg><svg viewBox="0 0 37 38" id="slider-arrow" xmlns="http://www.w3.org/2000/svg"><path d="M1.333 19h32.666M18 2.333L34.667 19 18 35.666"/></svg><svg viewBox="0 0 18 18" id="star" xmlns="http://www.w3.org/2000/svg"><path d="M8.006 1.104a1.108 1.108 0 011.988 0l1.838 3.724c.162.327.473.554.834.607l4.113.6c.909.134 1.271 1.25.613 1.891l-2.974 2.898c-.262.254-.381.621-.32.98l.702 4.092a1.108 1.108 0 01-1.608 1.169l-3.676-1.933a1.109 1.109 0 00-1.032 0l-3.676 1.933A1.108 1.108 0 013.2 15.896l.701-4.091a1.108 1.108 0 00-.319-.981L.608 7.926a1.108 1.108 0 01.613-1.89l4.113-.601c.36-.053.672-.28.834-.607l1.838-3.724z"/></svg><svg viewBox="0 0 19 16" id="twitter" xmlns="http://www.w3.org/2000/svg"><path d="M5.975 16c7.17 0 11.092-6.155 11.092-11.492 0-.175-.004-.35-.012-.523A8.097 8.097 0 0019 1.894a7.567 7.567 0 01-2.239.636A4.032 4.032 0 0018.476.296a7.655 7.655 0 01-2.476.98A3.832 3.832 0 0013.155 0c-2.153 0-3.899 1.809-3.899 4.039 0 .317.035.625.101.92-3.24-.168-6.112-1.775-8.035-4.22a4.142 4.142 0 00-.528 2.03c0 1.402.689 2.64 1.735 3.363a3.766 3.766 0 01-1.765-.505l-.001.051c0 1.956 1.344 3.59 3.128 3.96a3.784 3.784 0 01-1.761.069c.496 1.605 1.935 2.773 3.642 2.805A7.649 7.649 0 010 14.185 10.757 10.757 0 005.975 16"/></svg></svg>