<svg width="118" height="85" viewBox="0 0 118 85" fill="none" xmlns="http://www.w3.org/2000/svg">
<g style="mix-blend-mode:multiply">
<path d="M110.231 75.3845C110.092 75.1676 109.91 74.9796 109.696 74.8316C110.534 74.2268 110.605 73.1037 109.696 71.8596C109.277 71.2666 108.751 70.7515 108.144 70.3391C108.676 69.9974 109.092 69.5103 109.339 68.9395C109.455 68.5936 109.498 68.2288 109.466 67.8666C109.434 67.5043 109.327 67.1519 109.153 66.83C108.978 66.5081 108.739 66.2232 108.45 65.992C108.16 65.7608 107.826 65.588 107.466 65.4837C108.857 64.7926 109.25 63.7558 108.447 63.0301C107.592 62.5206 106.641 62.1804 105.649 62.0291C104.657 61.8779 103.644 61.9186 102.668 62.1489L102.472 61.9761C102.579 61.8552 102.704 61.7515 102.793 61.6306C103.066 61.3051 103.248 60.9163 103.319 60.5024C103.39 60.0885 103.349 59.6638 103.2 59.2699C103.051 58.876 102.798 58.5265 102.467 58.2557C102.136 57.985 101.738 57.8022 101.313 57.7255C100.919 57.6045 100.512 57.5291 100.1 57.5009C98.9066 56.1472 97.2692 55.2321 95.4622 54.9091C94.3855 54.6123 93.2794 54.427 92.1624 54.3562C92.1277 54.1597 92.0677 53.9681 91.9841 53.786C91.5492 52.8902 90.8681 52.1278 90.0154 51.5822C89.1628 51.0366 88.1716 50.729 87.1504 50.6931H86.651C84.9257 49.6303 82.8933 49.1335 80.8541 49.2762C80.1594 49.2858 79.467 49.3551 78.7851 49.4835C78.7937 49.4147 78.7937 49.3451 78.7851 49.2762C78.7641 48.3375 78.3901 47.4385 77.7332 46.748C77.0764 46.0576 76.1819 45.6233 75.2178 45.5267C74.7276 45.4484 74.2275 45.4484 73.7373 45.5267C71.8354 44.4175 69.6146 43.9327 67.4054 44.1444C66.4371 44.1642 65.4765 44.3154 64.5515 44.5936C64.0204 43.7424 63.276 43.0348 62.3874 42.5364C61.4988 42.038 60.4947 41.765 59.4681 41.7426C58.9405 41.6983 58.4157 41.8535 58.0034 42.1755C57.5912 42.4976 57.3235 42.9616 57.2564 43.4705C57.2564 43.3841 57.1672 43.2804 57.0959 43.1768C56.507 42.3256 55.7107 41.6282 54.7774 41.146C53.8442 40.6638 52.8026 40.4118 51.7449 40.4122C51.287 40.441 50.8474 40.597 50.4785 40.8614C48.7861 40.1882 46.9458 39.9386 45.1276 40.1357C44.183 40.1961 43.2551 40.4062 42.3808 40.7577C41.7909 39.999 41.0289 39.3816 40.1538 38.9532C39.2786 38.5248 38.3135 38.2968 37.333 38.2869C36.9833 38.2636 36.6334 38.3283 36.3171 38.4747C36.0008 38.6211 35.7289 38.8442 35.5279 39.1224C35.3269 39.4006 35.2035 39.7244 35.1698 40.0624C35.1361 40.4004 35.1931 40.7411 35.3354 41.0515C34.5609 40.2572 33.6173 39.6356 32.5702 39.2298C31.523 38.8241 30.3972 38.6438 29.2709 38.7015C28.9522 38.7009 28.6392 38.783 28.3644 38.9393C28.0895 39.0956 27.8629 39.3204 27.7082 39.5903C27.5534 39.8602 27.4761 40.1653 27.4843 40.4739C27.4925 40.7825 27.5859 41.0834 27.7548 41.3452C26.8992 40.6078 25.894 40.0517 24.8036 39.7125C23.7132 39.3733 22.5617 39.2585 21.4229 39.3754C19.8176 39.8074 19.8889 41.3625 21.4229 42.9176L20.7451 42.7275C17.6772 41.9154 14.7877 42.0882 14.2883 43.1076C14.0742 43.5051 14.2883 43.9716 14.8055 44.4381C13.9945 44.1819 13.1309 44.1225 12.2906 44.2653C10.5069 44.6627 10.5069 46.287 12.2906 47.9284C11.8014 48.0672 11.3466 48.3012 10.9541 48.6161C10.5615 48.9311 10.2394 49.3203 10.0075 49.76C9.76298 50.2564 9.6951 50.8173 9.8145 51.355C9.93391 51.8927 10.2339 52.3769 10.6675 52.732C9.3119 52.9393 8.43791 53.3886 8.42007 54.0279C8.40224 54.6672 9.97185 55.8594 12.1657 56.4296C11.2026 56.5333 10.5069 56.8098 10.2751 57.259C9.73997 58.2785 11.8447 59.799 14.9661 60.6284L15.5547 60.7666C15.0731 61.0085 14.7877 61.3023 14.7699 61.6824C14.7699 62.8228 17.4275 64.1014 20.7094 64.5161H20.7986C20.1208 64.8099 19.7463 65.19 19.8176 65.6565C19.996 66.7969 22.7071 67.9028 25.8642 68.1447C26.3636 68.1447 26.8452 68.1447 27.2911 68.1447C26.3101 68.9222 26.1674 69.8726 27.0949 70.5637C28.829 71.4796 30.862 71.7087 32.7669 71.203C34.1482 72.5615 35.9938 73.3848 37.9573 73.5184C38.9991 73.6949 40.058 73.7586 41.1144 73.7085C41.1417 73.8372 41.1775 73.9642 41.2214 74.0886C41.6505 75.0385 42.3459 75.8529 43.2287 76.4393C44.1115 77.0257 45.1463 77.3607 46.2156 77.4061C46.9771 77.438 47.7208 77.1772 48.2847 76.6804L48.6235 77.1469C49.3446 77.9628 50.2519 78.6046 51.2736 79.0215C52.2954 79.4384 53.4033 79.6189 54.5096 79.5487C54.8775 79.4975 55.2235 79.3479 55.5084 79.1167C55.6426 79.4145 55.8409 79.6811 56.0901 79.8987C56.3392 80.1162 56.6335 80.2797 56.9532 80.3781C57.7074 80.6342 58.5105 80.7266 59.3057 80.649C60.1008 80.5714 60.8687 80.3255 61.555 79.9288C61.622 80.117 61.7317 80.2883 61.8761 80.4299C62.9641 81.5012 65.9963 81.8986 68.6718 81.3111C69.2413 81.193 69.7971 81.0193 70.3306 80.7928C70.6008 81.6647 71.1342 82.4384 71.8621 83.0142C72.5901 83.59 73.4792 83.9417 74.4151 84.0239C75.0066 84.112 75.6118 84.0391 76.1629 83.8133C76.7141 83.5875 77.1897 83.2177 77.5365 82.7453C77.8537 83.1902 78.3009 83.5332 78.8207 83.7302C79.7985 84.0569 80.8489 84.1235 81.8623 83.9229C82.8756 83.7223 83.8149 83.2619 84.5819 82.5898V82.5898C84.8915 82.9739 85.3053 83.2671 85.777 83.4364C86.7933 83.776 87.8849 83.8462 88.9387 83.6396C89.9924 83.433 90.97 82.9572 91.77 82.2615V82.2615C92.0467 82.5436 92.3807 82.7672 92.751 82.9181C93.7426 83.2614 94.8099 83.3463 95.8461 83.1644C96.8822 82.9824 97.8508 82.54 98.6549 81.8813C98.9225 81.6681 99.1439 81.4056 99.3061 81.1091C99.4684 80.8125 99.5684 80.4877 99.6003 80.1535C101.848 80.9656 104.149 81.1211 104.951 80.4645C105.754 79.8079 105.13 78.7366 103.506 77.648C104.23 77.7094 104.959 77.7094 105.683 77.648C108.84 77.5789 110.837 76.5422 110.231 75.3845Z" fill="#B8B5AA"/>
</g>
<path d="M112.352 51.1595C112.202 50.8365 111.984 50.5479 111.71 50.3129C112.055 49.449 112.19 48.5203 112.107 47.5978C112.023 46.6753 111.723 45.7836 111.229 44.991C110.777 44.1501 110.173 43.395 109.445 42.762C109.949 41.846 110.259 40.8413 110.355 39.8073C110.676 37.0427 109.57 34.6237 107.84 34.0362C108.449 33.4065 108.827 32.6005 108.917 31.742C109.008 30.8836 108.804 30.0202 108.339 29.2845C107.144 27.9886 104.647 28.2132 102.471 29.7338L102.239 29.44C102.328 29.1981 102.417 28.9735 102.489 28.7143C103.345 25.6214 102.364 22.7013 100.313 22.1657C99.9083 22.0704 99.4863 22.0704 99.0819 22.1657C98.5465 21.3056 97.8116 20.5782 96.9354 20.0414C96.0591 19.5045 95.0658 19.1728 94.0342 19.0727C92.9269 18.8631 91.7882 18.8631 90.6809 19.0727C90.6107 18.7438 90.5153 18.4204 90.3956 18.1051C89.361 15.2196 86.971 13.4226 85.0446 14.0619C84.8784 14.1379 84.7175 14.2245 84.563 14.3211C83.7397 13.6713 82.7438 13.2601 81.6898 13.1348C80.6358 13.0094 79.5667 13.1751 78.6056 13.6126C77.8941 13.861 77.2218 14.2041 76.6079 14.6321V14.2865C76.4117 11.0726 74.5032 8.54994 72.345 8.70544C71.8145 8.73074 71.3045 8.91151 70.8824 9.22381C69.966 8.55676 68.8736 8.15417 67.7312 8.06246C66.5888 7.97075 65.4429 8.19364 64.4256 8.70544C63.3917 9.10204 62.4468 9.6888 61.6431 10.4333C60.3767 7.75511 57.951 6.18274 56.1138 6.97756C55.4398 7.37354 54.9075 7.96025 54.5885 8.65854C54.2696 9.35683 54.1794 10.1331 54.3302 10.8826C54.3302 10.7271 54.2053 10.5716 54.1161 10.416C52.7249 7.72055 50.1207 6.26913 48.3371 7.13307C47.8265 7.40507 47.42 7.8292 47.1777 8.34259C46.2965 7.9962 45.3454 7.84886 44.3966 7.91173C43.4478 7.9746 42.5262 8.24604 41.7019 8.70544C40.6952 9.20734 39.8128 9.91475 39.1156 10.7789C37.7065 8.44626 35.4056 7.20219 33.7647 7.94518C32.1237 8.68817 31.5351 11.0726 32.3021 13.5781C30.3757 11.1763 27.5932 10.1223 25.8988 11.28C25.2326 11.9093 24.7931 12.7295 24.6453 13.6195C24.4976 14.5094 24.6494 15.4218 25.0783 16.2217C22.8844 14.0792 19.9949 13.388 18.4788 14.7012C16.9627 16.0144 17.3551 18.7617 19.2101 21.0771C18.983 21.007 18.7503 20.955 18.5145 20.9216C15.3574 20.455 12.5392 21.6991 12.236 23.6862C12.1621 24.0902 12.1797 24.5049 12.2875 24.9017C12.3953 25.2985 12.5907 25.6678 12.8603 25.9843C12.4301 25.8821 11.9819 25.8724 11.5474 25.956C11.1129 26.0396 10.7026 26.2144 10.3453 26.4681C8.7579 27.7294 9.07895 30.6496 11.0231 33.0513C9.97098 34.1757 9.30425 35.5882 9.11463 37.0946C8.93776 37.9918 8.95255 38.9147 9.15809 39.8063C9.36362 40.6978 9.75554 41.5391 10.3097 42.2782C9.72406 42.564 9.23111 43.0007 8.88498 43.5403C8.53885 44.0798 8.35293 44.7013 8.34766 45.3366C8.49035 46.9089 10.1313 48.1012 12.4857 48.4467C12.0401 48.6355 11.6465 48.923 11.3367 49.2862C11.0269 49.6494 10.8095 50.078 10.7021 50.5375C10.3632 52.5591 12.7176 54.6153 15.946 55.1164H16.5524C16.1244 55.653 15.915 56.3233 15.9638 56.9998C16.16 59.0732 19.0139 60.4555 22.3315 60.2136C22.0414 60.5343 21.826 60.9117 21.6998 61.3201C21.5737 61.7286 21.5397 62.1585 21.6002 62.5808C21.9747 64.5506 24.8464 65.6737 28.0035 65.1035C28.486 65.0183 28.9582 64.8852 29.4126 64.7061C28.9918 65.4007 28.8052 66.2051 28.8788 67.0073C28.9523 67.8095 29.2823 68.5695 29.8228 69.1813C31.107 70.3563 33.3901 70.0107 35.5126 68.5075C36.1145 69.3644 36.95 70.0427 37.9263 70.4667C38.9025 70.8908 39.9811 71.044 41.042 70.9092C42.124 70.8874 43.1909 70.6583 44.1812 70.2354C44.1812 70.46 44.2882 70.6846 44.3595 70.8919C45.3762 73.9503 47.9269 75.9028 49.8889 75.2635C50.3395 75.0987 50.7447 74.8352 51.0727 74.4935C51.4007 74.1517 51.6426 73.7411 51.7795 73.2937C51.9222 73.5356 52.0471 73.7775 52.2076 74.0194C53.9021 76.4557 56.5954 77.4752 58.2185 76.5076C58.6274 76.2411 58.9443 75.8619 59.1282 75.419C59.249 75.8214 59.4604 76.1929 59.7473 76.5066C60.0341 76.8203 60.3892 77.0685 60.787 77.2333C62.2674 77.7516 64.0332 76.7495 65.2283 74.9352C65.3177 75.2207 65.4564 75.4894 65.6385 75.73C66.9049 77.3024 69.9728 77.0432 72.4877 75.1598C73.0595 74.7268 73.5747 74.2278 74.0217 73.6738C74.6994 76.4903 76.6793 78.4773 78.6413 78.1836C79.3983 77.9702 80.0732 77.5446 80.581 76.9604C81.0888 76.3762 81.4069 75.6596 81.4951 74.9006C81.7827 75.5051 82.291 75.9852 82.9221 76.2484C84.8127 76.9395 87.2563 75.2116 88.38 72.3779C88.6838 72.8907 89.1542 73.2916 89.7178 73.5183C91.6798 74.244 94.2304 72.4298 95.3898 69.4751C95.6702 69.8595 96.0522 70.1639 96.4956 70.3563C98.3863 71.1166 100.883 69.4232 102.096 66.6068C102.554 65.5358 102.75 64.3766 102.667 63.2201C105.039 63.9631 107.34 63.5139 108.018 62.0279C108.696 60.5419 108.018 58.814 106.234 57.4317V57.3281C106.977 57.2354 107.704 57.0435 108.393 56.7579C111.389 55.5483 113.173 53.0429 112.352 51.1595Z" fill="#ECE2AC"/>
<path d="M91.1452 35.7989C91.2522 35.5743 91.3593 35.367 91.4484 35.125C92.5543 32.3432 91.93 29.5267 90.0572 28.8356C89.5472 28.684 89.0056 28.6616 88.4842 28.7705C87.9627 28.8794 87.4788 29.116 87.0785 29.4576C87.899 26.9867 87.3461 24.585 85.7051 23.9284C85.3013 23.7885 84.87 23.7391 84.4436 23.784C84.0173 23.8289 83.607 23.9669 83.2437 24.1875C82.6123 22.7804 81.4608 21.6526 80.0153 21.0255C79.2412 20.6583 78.4093 20.4188 77.5538 20.3171C77.6747 19.8214 77.631 19.3013 77.429 18.8311C76.662 17.1032 73.7546 16.5503 70.9186 17.6907C70.3309 17.9325 69.7742 18.2399 69.2598 18.6065C69.1126 18.0807 68.9094 17.5711 68.6534 17.0859C67.28 14.5632 64.8007 13.2155 63.1063 14.0794C63.1063 13.993 63.1063 13.9239 63.1063 13.8375C62.8073 13.2084 62.2713 12.7138 61.608 12.4552C61.402 12.1039 61.1171 11.8019 60.7744 11.5716C60.4317 11.3413 60.04 11.1886 59.6281 11.1248C59.0852 11.1125 58.548 11.2346 58.0674 11.4795C57.5867 11.7244 57.1785 12.084 56.8813 12.5243L56.2927 12.6971C55.327 13.1028 54.454 13.6901 53.7243 14.425C52.5292 11.885 50.157 10.4163 48.4803 11.1248C47.8256 11.4876 47.3028 12.0377 46.9835 12.6997C46.6642 13.3617 46.564 14.1031 46.6967 14.8224C46.6967 14.6669 46.5718 14.5114 46.5005 14.3732C45.1806 11.7468 42.7191 10.4336 41.0247 11.1939C40.7288 11.3468 40.4675 11.5556 40.2561 11.8078C40.0448 12.06 39.8876 12.3506 39.7939 12.6626C38.9863 12.4102 38.1333 12.3229 37.2891 12.4062C36.4448 12.4895 35.6275 12.7415 34.8889 13.1464C33.7034 13.695 32.6974 14.55 31.9816 15.6172C31.5304 14.9322 30.8636 14.4061 30.0798 14.1167C29.296 13.8273 28.4368 13.79 27.6295 14.0103C26.0063 14.7187 25.4891 17.0687 26.3274 19.505C24.5437 17.1205 21.7791 16.0492 20.156 17.1896C18.5328 18.33 18.6042 21.0946 20.263 23.5482C19.643 23.1374 18.9094 22.9176 18.1583 22.9176C17.4071 22.9176 16.6735 23.1374 16.0536 23.5482C14.5375 24.8614 15.019 27.747 17.1238 30.0105C17.2308 30.1315 17.3556 30.2179 17.4626 30.3388C14.6088 30.0451 12.1117 31.1682 11.862 32.9652C11.6479 34.3993 12.8787 35.8335 14.805 36.6283C13.5743 37.9415 13.931 40.5679 15.7682 42.745C16.4223 43.5348 17.2355 44.1873 18.1583 44.663C18.0057 45.102 17.8923 45.5529 17.8194 46.0107C17.3913 48.9481 18.6399 51.5572 20.6019 51.8337C20.7261 51.8509 20.8522 51.8509 20.9764 51.8337C21.1905 53.6652 23.6162 54.9266 26.5058 54.7884C26.3987 56.6199 28.5391 58.4169 31.4643 58.8834C32.0574 58.9394 32.6548 58.9394 33.2479 58.8834C33.9614 60.4213 36.3337 61.4061 39.0448 61.1642C39.3923 61.1306 39.7377 61.0787 40.0793 61.0087C40.5609 62.7366 43.1829 63.7733 46.0724 63.255C46.64 63.1375 47.1953 62.9698 47.7312 62.7539C47.6626 63.179 47.6961 63.6138 47.8292 64.0243C47.9622 64.4349 48.1911 64.8102 48.4982 65.1211C49.9251 66.4516 52.7968 65.7777 54.9015 63.6178L55.0977 63.3932C56.3495 64.3266 57.909 64.7872 59.4854 64.6891C60.8826 64.7191 62.2565 64.3397 63.4273 63.6006C64.551 65.8986 66.5665 67.2809 68.261 66.7453C69.9555 66.2097 70.7581 63.9461 70.2587 61.4234L70.4906 61.8208C72.0958 64.1189 74.6465 65.1729 76.1804 64.1708C76.5853 63.8645 76.9004 63.461 77.0944 63.0003C77.2884 62.5395 77.3546 62.0376 77.2863 61.5444C77.4951 61.7248 77.7371 61.8654 77.9997 61.9591C79.7834 62.5811 81.9773 60.9569 82.9583 58.3132C83.084 57.9749 83.1853 57.6285 83.2615 57.2765C84.711 57.1882 86.0957 56.6625 87.2212 55.7733C88.3565 54.9513 89.2134 53.8204 89.6826 52.5248C91.5733 52.0929 92.7327 49.501 92.2689 46.5809C92.1268 45.6047 91.7874 44.6653 91.2701 43.8163C91.7658 43.226 92.1576 42.5605 92.4295 41.8465C93.5353 39.1683 92.9467 36.4555 91.1452 35.7989Z" fill="#FCFBE6"/>
<path d="M58.7177 48.0151C60.1981 42.8315 54.0623 36.7148 45.0371 34.2958C36.0118 31.8767 27.486 34.0884 25.9698 39.2375C24.4537 44.3866 30.6073 50.5206 39.6504 52.9396C48.6936 55.3586 57.2372 53.1642 58.7177 48.0151Z" fill="white"/>
<path d="M2.6399 28.2137C8.34758 20.8011 29.5373 -2.07611 52.4216 0.221974C75.3058 2.52006 112.548 15.8939 117.275 51.6956C120.646 77.2856 112.049 65.0694 95.8713 57.2421C79.6936 49.4148 42.1299 31.8941 17.8723 33.2764C-6.38537 34.6587 2.6399 28.2137 2.6399 28.2137Z" fill="#E61300"/>
<path d="M114.903 64.3609C113.227 64.3609 110.087 62.443 106.467 60.2313C103.25 58.1965 99.9279 56.3222 96.5138 54.6157C63.4271 38.5636 37.8674 30.4253 20.6195 30.4253C19.6564 30.4253 18.6932 30.4253 17.7479 30.5117C15.5183 30.6327 13.4671 30.7018 11.6834 30.7018C3.2111 30.7018 2.39062 29.2503 2.39062 29.2331C2.60586 28.7073 2.97858 28.256 3.46081 27.9372L3.62134 27.8162L3.7462 27.6434C4.65586 26.5203 25.4175 0.0664081 49.1579 0.0664081C50.1945 0.0660515 51.2304 0.117958 52.2615 0.221918C58.1832 0.809398 110.159 7.28896 115.866 50.5033C116.883 58.2269 116.812 62.7886 115.652 64.0672C115.561 64.171 115.445 64.2518 115.315 64.303C115.185 64.3541 115.043 64.374 114.903 64.3609Z" fill="#F4493A"/>
<path d="M52.4205 0.221974C29.5363 -2.07611 8.34655 20.8011 2.63887 28.2137C2.44284 28.3557 2.25802 28.5116 2.08594 28.6802C5.14348 28.5616 8.1889 28.2383 11.2004 27.7126C34.1203 23.773 69.0798 31.9805 85.4359 38.9438C101.792 45.9072 114.973 46.0973 111.352 33.7602C98.8668 11.2113 70.8992 2.08809 52.4205 0.221974Z" fill="#FF685A"/>
<g style="mix-blend-mode:color-dodge" opacity="0.3">
<g style="mix-blend-mode:color-dodge">
<path d="M45.3762 4.50642C47.3739 2.98588 49.5321 1.55174 51.6903 0.169434C50.9055 0.169434 50.1385 0.169434 49.3537 0.169434C36.519 8.77604 25.8653 20.0892 18.1934 33.2584H19.4954C26.1015 22.1292 34.8939 12.3613 45.3762 4.50642V4.50642Z" fill="white"/>
</g>
<g style="mix-blend-mode:color-dodge">
<path d="M42.2373 36.3521C45.1626 32.3617 48.4005 28.5953 51.9225 25.0863C54.566 22.4025 57.3904 19.8916 60.377 17.57C66.1171 13.4003 72.2713 9.79435 78.7486 6.80527C77.5535 6.32146 76.3763 5.87221 75.1813 5.45752C72.5735 6.71649 70.0585 8.14827 67.6543 9.74267C64.3996 11.6359 61.2828 13.7431 58.3258 16.0494C55.3873 18.3438 52.6271 20.8444 50.0675 23.5312C46.591 27.0857 43.4455 30.9307 40.6676 35.0216L40.1504 35.8164L42.2016 36.3348L42.2373 36.3521Z" fill="white"/>
</g>
<g style="mix-blend-mode:color-dodge">
<path d="M32.428 34.2609C37.3297 27.226 43.0447 20.7563 49.4618 14.9777C52.9031 11.8505 56.5687 8.96348 60.4313 6.33828C62.4646 5.05964 64.5694 3.86741 66.7097 2.74428C65.2115 2.41598 63.6419 2.07041 62.1436 1.79395C61.1447 2.38143 60.1281 2.95163 59.1649 3.52183C55.1999 6.11583 51.4489 9.00432 47.9457 12.1612C40.8889 18.5063 34.8367 25.8249 29.9844 33.8807L32.428 34.2609Z" fill="white"/>
</g>
<g style="mix-blend-mode:color-dodge">
<path d="M31.9633 4.17822C27.7686 6.16552 23.7942 8.56242 20.102 11.3317C14.064 17.9012 8.8492 25.1394 4.56641 32.8956C5.39169 33.0546 6.22529 33.17 7.06352 33.2412L7.63428 32.239C14.4954 21.9329 22.6694 12.505 31.9633 4.17822V4.17822Z" fill="white"/>
</g>
<g style="mix-blend-mode:color-dodge">
<path d="M115.492 43.4707C110.178 44.5021 105.083 46.3948 100.42 49.069C97.3447 50.9027 94.4171 52.959 91.6621 55.2203L92.6966 55.7041C99.2605 50.9006 107.447 48.3261 116.383 46.8746C116.134 45.7169 115.831 44.5938 115.492 43.4707Z" fill="white"/>
</g>
<g style="mix-blend-mode:color-dodge">
<path d="M114.296 39.9114C113.567 38.0261 112.721 36.1854 111.763 34.3994C99.8123 37.0258 89.0747 42.0021 81.084 50.3478L82.386 50.9353C90.8406 44.162 102.078 41.19 114.296 39.9114Z" fill="white"/>
</g>
<g style="mix-blend-mode:color-dodge">
<path d="M117.703 55.3583C117.703 54.8572 117.596 54.3561 117.543 53.8032C112.066 55.2945 106.848 57.5655 102.061 60.542L103.149 61.1986C107.66 58.5365 112.57 56.5664 117.703 55.3583Z" fill="white"/>
</g>
<g style="mix-blend-mode:color-dodge">
<path d="M60.3774 29.4404C68.9714 21.8188 79.127 16.0372 90.1822 12.4726C88.6125 11.5395 87.0251 10.7447 85.4198 9.84619C73.1572 13.7413 62.3505 21.0491 54.3486 30.8572C52.4048 33.175 50.6683 35.6491 49.1582 38.2526L51.3699 38.9265C54.1036 35.5344 57.1159 32.362 60.3774 29.4404V29.4404Z" fill="white"/>
</g>
<g style="mix-blend-mode:color-dodge">
<path d="M108.019 28.3515C107.252 27.3148 106.467 26.3299 105.647 25.3623C91.217 27.7122 78.2498 33.5006 68.957 45.233L71.686 46.3388C81.7101 36.4553 94.267 31.0125 108.019 28.3515Z" fill="white"/>
</g>
<g style="mix-blend-mode:color-dodge">
<path d="M100.081 19.7463C99.3137 19.0725 98.5289 18.3986 97.7263 17.7593C82.7971 21.7334 69.4019 29.4743 60.127 41.9496L61.6252 42.5026C71.4353 30.9776 85.0624 23.5822 100.081 19.7463Z" fill="white"/>
</g>
</g>
<path d="M78.7121 9.6906C79.0866 7.34068 71.2564 4.23049 61.2144 2.77907C51.1725 1.32764 42.7537 1.98424 42.3791 4.33416C42.0045 6.68408 50.5125 5.54368 60.5545 7.02966C70.5964 8.51564 78.3375 12.0405 78.7121 9.6906Z" fill="white"/>
<path d="M110.835 43.4537C112.726 41.9331 110.229 36.0411 105.288 30.3045C100.348 24.5679 94.8004 21.1467 92.9097 22.6672C91.0191 24.1878 99.6341 25.9157 101.828 33.0345C105.734 45.3544 108.963 44.9915 110.835 43.4537Z" fill="white"/>
</svg>
