<svg width="693" height="646" viewBox="0 0 693 646" fill="none" xmlns="http://www.w3.org/2000/svg">
<path d="M566.91 485.877C570.229 482.216 351.332 279.12 78.0607 32.448L66.2003 45.6213C339.478 292.4 563.539 489.54 566.91 485.877Z" fill="#B4703D"/>
<path d="M78.0607 32.4479L66.2004 45.6212C118.768 93.1478 169.575 138.795 217.337 181.511L228.645 168.957C181.235 125.847 130.681 79.9715 78.0607 32.4479Z" fill="#030800"/>
<path d="M561.21 477.481C561.813 476.806 344.731 278.474 76.2502 34.4202L73.8242 36.8547C342.518 280.896 560.608 478.157 561.21 477.481Z" fill="#FCFBE6"/>
<path d="M568.226 413.952C602.422 428.879 625.474 451.647 619.751 464.798L584.984 544.635C576.703 563.596 542.353 566.908 508.156 551.98C473.959 537.053 453.046 509.568 461.264 490.45L496.04 410.773C501.763 397.622 534.082 399.022 568.226 413.952Z" fill="#030800"/>
<g clip-path="url(#clip0_29527_48)">
<g style="mix-blend-mode:multiply">
<path d="M427.945 592.241C428.19 591.6 428.561 591.014 429.036 590.518C426.587 589.326 425.841 586.39 427.543 582.656C428.317 580.884 429.403 579.265 430.75 577.879C429.216 577.234 427.907 576.148 426.989 574.758C426.52 573.899 426.227 572.955 426.126 571.982C426.026 571.008 426.121 570.024 426.406 569.087C426.69 568.151 427.159 567.281 427.784 566.528C428.409 565.776 429.178 565.156 430.045 564.705C426.138 563.554 424.614 561.003 426.303 558.692C428.235 556.928 430.498 555.565 432.96 554.682C435.422 553.799 438.034 553.413 440.646 553.548L441.061 552.995C440.727 552.727 440.355 552.514 440.066 552.237C439.203 551.509 438.544 550.569 438.154 549.509C437.763 548.449 437.655 547.305 437.839 546.191C438.023 545.076 438.494 544.029 439.204 543.151C439.915 542.274 440.842 541.597 441.893 541.187C442.839 540.675 443.843 540.277 444.883 540.002C447.256 535.84 450.985 532.622 455.446 530.888C458.052 529.579 460.789 528.55 463.611 527.819C463.601 527.282 463.658 526.746 463.781 526.224C464.444 523.643 465.804 521.294 467.711 519.436C469.618 517.577 472 516.281 474.595 515.689L475.872 515.446C479.753 511.794 484.703 509.491 489.992 508.875C491.774 508.562 493.581 508.409 495.39 508.417C495.333 508.239 495.298 508.054 495.286 507.868C494.868 505.375 495.373 502.815 496.707 500.668C498.041 498.522 500.111 496.938 502.53 496.213C503.744 495.767 505.024 495.524 506.317 495.492C510.626 491.632 516.065 489.268 521.824 488.753C524.311 488.334 526.845 488.266 529.351 488.552C530.282 486.041 531.831 483.807 533.855 482.056C535.878 480.305 538.31 479.094 540.925 478.535C542.253 478.161 543.673 478.316 544.89 478.967C546.106 479.618 547.024 480.715 547.451 482.029C547.408 481.8 547.584 481.483 547.715 481.174C548.794 478.636 550.481 476.403 552.626 474.673C554.772 472.943 557.31 471.769 560.017 471.255C561.203 471.109 562.406 471.307 563.482 471.827C567.474 469.222 572.057 467.666 576.808 467.302C579.255 467.002 581.735 467.106 584.149 467.61C585.277 465.316 586.916 463.312 588.94 461.753C590.964 460.193 593.319 459.12 595.822 458.617C596.705 458.385 597.633 458.386 598.516 458.619C599.399 458.852 600.206 459.31 600.86 459.948C601.514 460.586 601.993 461.383 602.249 462.26C602.505 463.138 602.53 464.067 602.322 464.957C603.905 462.479 606.006 460.375 608.482 458.792C610.957 457.209 613.747 456.184 616.658 455.788C617.473 455.632 618.315 455.696 619.097 455.976C619.878 456.256 620.571 456.74 621.102 457.378C621.634 458.017 621.985 458.786 622.119 459.607C622.253 460.427 622.165 461.269 621.864 462.043C623.683 459.676 625.976 457.716 628.595 456.288C631.215 454.859 634.103 453.995 637.076 453.75C641.4 454.111 641.998 458.259 638.855 463.12L640.493 462.287C647.935 458.645 655.414 457.695 657.204 460.149C657.951 461.096 657.638 462.434 656.549 463.92C658.495 462.847 660.675 462.27 662.897 462.239C667.66 462.421 668.476 466.718 664.737 471.928C666.058 472.057 667.339 472.455 668.502 473.097C669.664 473.739 670.684 474.612 671.498 475.662C672.373 476.856 672.828 478.306 672.793 479.787C672.758 481.267 672.233 482.694 671.302 483.845C674.875 483.733 677.336 484.496 677.703 486.178C678.07 487.861 674.653 491.779 669.326 494.355C671.842 494.161 673.761 494.553 674.58 495.629C676.461 498.065 671.84 503.112 664.27 506.825L662.834 507.478C664.187 507.883 665.065 508.521 665.302 509.518C665.874 512.535 659.717 517.211 651.528 519.906L651.3 519.949C653.182 520.396 654.331 521.219 654.383 522.488C654.499 525.592 648.118 529.837 640.162 532.014C638.885 532.257 637.653 532.492 636.512 532.709C639.412 534.288 640.255 536.732 638.229 539.012C634.252 542.279 629.165 543.875 624.038 543.465C621.186 547.731 616.878 550.807 611.921 552.117C609.344 553.091 606.667 553.775 603.939 554.156C603.934 554.51 603.906 554.864 603.856 555.214C603.235 557.936 601.865 560.429 599.901 562.41C597.937 564.391 595.458 565.78 592.745 566.421C590.812 566.876 588.779 566.549 587.086 565.509L586.454 566.908C585.019 569.417 583.019 571.557 580.615 573.157C578.21 574.757 575.466 575.774 572.6 576.127C571.633 576.171 570.673 575.944 569.828 575.471C569.634 576.324 569.261 577.126 568.732 577.822C568.204 578.519 567.533 579.095 566.765 579.511C564.964 580.555 562.956 581.191 560.882 581.373C558.809 581.555 556.721 581.278 554.765 580.563C554.689 581.093 554.494 581.6 554.196 582.045C551.95 585.408 544.392 587.936 537.251 587.684C535.735 587.649 534.226 587.46 532.747 587.121C532.493 589.559 531.517 591.865 529.944 593.743C528.371 595.62 526.273 596.983 523.919 597.657C522.45 598.178 520.865 598.279 519.342 597.95C517.818 597.621 516.416 596.875 515.291 595.794C514.703 597.125 513.731 598.25 512.5 599.025C510.162 600.365 507.508 601.052 504.815 601.015C502.121 600.978 499.487 600.217 497.187 598.813V598.813C496.588 599.98 495.677 600.957 494.555 601.634C492.125 603.028 489.367 603.745 486.567 603.711C483.768 603.678 481.028 602.895 478.631 601.444V601.444C478.065 602.325 477.323 603.079 476.451 603.659C474.086 605.05 471.398 605.794 468.656 605.817C465.914 605.84 463.213 605.141 460.825 603.791C460.033 603.357 459.335 602.77 458.771 602.065C458.207 601.359 457.788 600.549 457.538 599.68C452.196 602.923 446.388 604.454 444.004 603.108C441.621 601.762 442.68 598.624 446.286 594.955C444.464 595.469 442.602 595.824 440.718 596.014C432.606 597.368 426.974 595.599 427.945 592.241Z" fill="#B8B5AA"/>
</g>
<path d="M388.511 535.854C388.732 534.927 389.147 534.057 389.729 533.302C388.413 531.184 387.6 528.794 387.35 526.313C387.1 523.832 387.421 521.327 388.288 518.99C389.02 516.546 390.187 514.254 391.732 512.225C389.982 510.047 388.685 507.54 387.92 504.852C385.71 497.695 387.325 490.758 391.456 488.362C389.582 486.992 388.208 485.045 387.546 482.818C386.884 480.591 386.971 478.208 387.792 476.035C390.198 472.026 396.7 471.404 403.031 474.367L403.477 473.477C403.127 472.88 402.786 472.33 402.474 471.679C398.73 463.914 399.773 455.712 404.752 453.296C405.739 452.848 406.818 452.642 407.901 452.697C408.839 450.161 410.354 447.88 412.326 446.033C414.298 444.186 416.673 442.825 419.262 442.058C421.99 440.964 424.903 440.41 427.841 440.425C427.856 439.521 427.938 438.619 428.086 437.727C429.283 429.59 434.496 423.673 439.745 424.426C440.209 424.546 440.664 424.697 441.108 424.877C442.888 422.758 445.229 421.185 447.863 420.34C450.497 419.496 453.315 419.413 455.994 420.103C457.939 420.414 459.832 420.994 461.617 421.827L461.444 420.913C460.331 412.316 463.947 404.714 469.547 404.074C470.917 403.883 472.313 404.113 473.55 404.733C475.559 402.523 478.152 400.926 481.029 400.127C483.906 399.328 486.949 399.36 489.809 400.218C492.654 400.764 495.366 401.856 497.796 403.434C499.691 395.733 505.108 390.393 510.207 391.601C512.131 392.32 513.787 393.613 514.954 395.305C516.121 396.997 516.741 399.006 516.732 401.062C516.654 400.651 516.895 400.179 517.045 399.724C519.251 391.916 525.185 386.809 530.182 388.226C531.625 388.697 532.878 389.621 533.756 390.861C535.837 389.516 538.196 388.663 540.655 388.367C543.114 388.072 545.609 388.341 547.948 389.155C550.776 389.992 553.389 391.434 555.607 393.38C558.04 386.524 563.303 382.113 567.874 383.279C572.446 384.446 575.149 390.467 574.445 397.468C578.168 390.176 584.757 386.034 589.674 388.271C591.695 389.611 593.231 391.567 594.056 393.849C594.881 396.131 594.951 398.619 594.256 400.944C598.793 394.208 605.838 390.973 610.377 393.708C614.915 396.444 615.291 403.902 611.708 410.93C612.254 410.634 612.823 410.383 613.41 410.18C621.253 407.409 629.088 409.328 630.862 414.436C631.254 415.469 631.417 416.575 631.341 417.677C631.264 418.779 630.95 419.851 630.419 420.819C631.468 420.339 632.61 420.096 633.764 420.105C634.918 420.115 636.055 420.377 637.097 420.875C641.792 423.438 642.437 431.319 638.669 438.619C641.926 441.081 644.341 444.492 645.583 448.385C646.486 450.672 646.912 453.121 646.834 455.579C646.756 458.038 646.175 460.454 645.129 462.679C646.771 463.15 648.251 464.065 649.408 465.324C650.564 466.582 651.352 468.136 651.685 469.814C652.11 474.042 648.51 477.995 642.66 480.056C643.895 480.338 645.046 480.907 646.021 481.717C646.996 482.526 647.768 483.554 648.273 484.718C650.156 489.9 645.165 496.486 637.156 499.383L635.605 499.678C636.969 500.889 637.842 502.561 638.057 504.374C638.596 509.954 631.989 515 623.379 515.975C624.282 516.683 625.023 517.576 625.551 518.595C626.079 519.614 626.382 520.735 626.439 521.881C626.47 527.274 619.687 531.643 611.323 531.672C610.046 531.682 608.771 531.559 607.519 531.307C608.944 532.939 609.825 534.976 610.04 537.134C610.255 539.292 609.792 541.463 608.717 543.345C606.021 547.078 600.006 547.275 593.821 544.332C592.711 546.892 590.914 549.093 588.629 550.69C586.345 552.287 583.662 553.217 580.88 553.378C578.101 553.847 575.256 553.76 572.51 553.123C572.623 553.718 572.462 554.364 572.383 554.947C571.318 563.532 565.773 569.939 560.432 569.203C559.196 568.987 558.027 568.487 557.016 567.742C556.006 566.998 555.18 566.03 554.605 564.913C554.362 565.622 554.164 566.323 553.875 567.041C550.763 574.311 544.384 578.319 539.745 576.549C538.565 576.044 537.564 575.195 536.871 574.113C536.764 575.236 536.41 576.322 535.834 577.291C535.257 578.261 534.473 579.09 533.538 579.72C530.011 581.812 524.99 580.02 521.021 575.803C520.935 576.602 520.716 577.38 520.371 578.105C517.92 582.881 509.941 583.689 502.56 579.932C500.88 579.065 499.311 577.995 497.889 576.748C497.57 584.528 493.502 590.748 488.335 590.926C486.291 590.73 484.351 589.933 482.758 588.635C481.165 587.337 479.991 585.596 479.384 583.631C478.952 585.371 477.893 586.888 476.41 587.891C471.92 590.64 464.8 587.259 460.502 580.31C459.982 581.815 458.98 583.104 457.652 583.978C452.997 586.853 445.56 583.296 441.109 576.044C440.585 577.198 439.761 578.189 438.723 578.914C434.267 581.846 427.028 578.582 422.51 571.722C420.801 569.112 419.718 566.141 419.349 563.042C413.652 566.162 407.54 566.094 405.059 562.493C402.579 558.892 403.445 553.992 407.314 549.467L407.262 549.193C405.314 549.309 403.36 549.155 401.454 548.735C393.18 546.995 387.358 541.235 388.511 535.854Z" fill="#ECE2AC"/>
<path d="M435.057 484.895C434.67 484.353 434.292 483.857 433.943 483.26C429.716 476.44 429.899 468.686 434.343 465.946C435.572 465.296 436.946 464.974 438.335 465.008C439.724 465.042 441.081 465.432 442.277 466.141C438.937 460.004 439.145 453.382 443.014 450.846C443.976 450.279 445.055 449.939 446.168 449.85C447.282 449.761 448.401 449.926 449.441 450.333C450.35 446.303 452.73 442.76 456.113 440.397C457.909 439.049 459.917 438.01 462.055 437.325C461.497 436.072 461.347 434.675 461.628 433.333C462.722 428.389 469.883 425.511 477.712 427.147C479.337 427.5 480.916 428.042 482.416 428.762C482.529 427.299 482.793 425.852 483.204 424.444C485.451 417.102 491.117 412.33 495.886 413.79C495.843 413.562 495.808 413.379 495.765 413.15C496.214 411.341 497.337 409.771 498.904 408.764C499.254 407.735 499.832 406.797 500.593 406.021C501.354 405.245 502.28 404.651 503.301 404.281C504.684 403.984 506.12 404.046 507.473 404.46C508.825 404.873 510.05 405.626 511.032 406.646L512.625 406.816C515.299 407.419 517.828 408.548 520.064 410.137C521.846 402.836 527.178 397.796 531.823 398.854C533.68 399.495 535.294 400.695 536.444 402.291C537.593 403.887 538.222 405.799 538.244 407.766C538.166 407.355 538.407 406.883 538.52 406.482C540.578 398.892 546.216 394.22 550.933 395.406C551.767 395.667 552.541 396.092 553.208 396.656C553.875 397.22 554.423 397.913 554.82 398.692C556.76 397.631 558.898 396.985 561.1 396.795C563.302 396.604 565.519 396.873 567.613 397.584C570.921 398.458 573.925 400.23 576.292 402.704C577.102 400.673 578.544 398.956 580.404 397.809C582.264 396.662 584.444 396.145 586.62 396.335C591.129 397.419 593.632 403.383 592.711 410.236C596.077 403.06 602.612 398.88 607.338 401.106C612.064 403.333 613.27 410.68 610.258 417.978C611.638 416.59 613.404 415.651 615.326 415.285C617.248 414.92 619.235 415.144 621.028 415.929C625.566 418.664 625.784 426.532 621.536 433.544C621.322 433.916 621.046 434.206 620.833 434.578C627.987 432.411 634.94 434.166 636.482 438.798C637.75 442.488 635.321 446.881 630.792 449.921C634.6 452.795 635.007 459.917 631.4 466.57C630.123 468.978 628.37 471.1 626.248 472.807C626.859 473.894 627.376 475.032 627.792 476.207C630.363 483.769 628.479 491.279 623.598 492.965C623.289 493.071 622.966 493.133 622.64 493.148C623.012 498.097 617.439 502.614 609.977 503.656C611.17 508.448 606.597 514.244 599.347 516.902C597.857 517.339 596.329 517.63 594.783 517.771C593.73 522.186 588.156 525.946 581.098 526.626C580.192 526.706 579.282 526.737 578.373 526.719C578.008 531.524 571.821 535.543 564.167 535.578C562.656 535.544 561.151 535.371 559.672 535.06C560.061 536.152 560.193 537.318 560.059 538.469C559.925 539.619 559.528 540.724 558.898 541.696C555.916 545.91 548.23 545.525 541.76 540.837L541.146 540.338C538.411 543.417 534.653 545.394 530.57 545.902C527.011 546.662 523.305 546.327 519.938 544.942C518.217 551.568 513.755 556.206 509.15 555.614C504.546 555.022 501.356 549.425 501.366 542.509L500.973 543.673C498.02 550.534 492.023 554.564 487.595 552.66C486.406 552.047 485.397 551.133 484.669 550.008C483.941 548.884 483.52 547.588 483.447 546.251C483.003 546.829 482.454 547.319 481.83 547.695C477.579 550.209 471.15 546.98 467.312 540.465C466.82 539.631 466.387 538.764 466.015 537.87C462.262 538.342 458.456 537.626 455.129 535.822C451.812 534.2 449.051 531.626 447.2 528.427C442.146 528.205 437.878 521.913 437.598 513.963C437.471 511.312 437.867 508.661 438.765 506.164C437.2 504.844 435.863 503.274 434.809 501.518C430.634 494.972 430.778 487.509 435.057 484.895Z" fill="#FCFBE6"/>
<path d="M524.158 501.422C517.767 488.431 530.393 469.263 552.269 458.47C574.146 447.677 597.07 449.377 603.535 462.259C610.001 475.141 597.338 494.363 575.415 505.165C553.493 515.967 530.532 514.322 524.158 501.422Z" fill="white"/>
<path d="M657.687 421.741C639.361 404.912 573.656 354.713 516.26 371.934C458.865 389.154 370.296 442.664 376.185 539.669C380.413 609.002 396.273 572.502 433.733 543.92C471.192 515.339 558.5 450.703 621.258 442.549C684.016 434.395 657.687 421.741 657.687 421.741Z" fill="#E61300"/>
<path d="M388.616 572.017C392.906 571.201 399.974 564.599 408.128 556.986C415.336 550.037 422.894 543.462 430.771 537.285C507.362 478.715 568.67 444.743 612.799 436.345C615.263 435.876 617.727 435.407 620.189 435.175C625.955 434.41 631.237 433.594 635.801 432.726C657.478 428.601 658.848 424.362 658.839 424.316C658.024 423.03 656.844 422.018 655.45 421.409L654.979 421.167L654.572 420.771C651.681 418.243 585.274 358.374 524.534 369.933C521.882 370.437 519.257 371.078 516.672 371.855C501.816 376.292 372.09 418.738 379.192 535.829C380.47 556.755 382.944 568.787 386.552 571.605C386.838 571.835 387.174 571.993 387.534 572.064C387.893 572.136 388.265 572.12 388.616 572.017Z" fill="#F4493A"/>
<path d="M516.26 371.934C573.655 354.713 639.36 404.912 657.687 421.741C658.26 422.021 658.811 422.344 659.336 422.706C651.453 423.881 643.499 424.508 635.53 424.584C574.91 425.322 489.588 464.054 451.238 490.437C412.888 516.82 379.259 523.74 382.326 489.343C402.945 423.617 469.919 385.867 516.26 371.934Z" fill="#FF685A"/>
<g style="mix-blend-mode:color-dodge" opacity="0.3">
<g style="mix-blend-mode:color-dodge">
<path d="M536.439 379.839C530.564 376.789 524.322 374.046 518.106 371.441C520.114 371.059 522.076 370.685 524.084 370.303C561.245 386.821 594.185 411.56 620.428 442.66L617.097 443.294C594.605 417.071 567.203 395.513 536.439 379.839V379.839Z" fill="white"/>
</g>
<g style="mix-blend-mode:color-dodge">
<path d="M560.465 462.548C550.977 453.416 540.8 445.03 530.027 437.462C521.915 431.65 513.428 426.384 504.621 421.696C487.84 413.461 470.283 406.919 452.21 402.166C455.024 400.304 457.81 398.543 460.66 396.864C467.964 398.924 475.118 401.487 482.07 404.534C491.348 407.958 500.381 412.014 509.105 416.675C517.775 421.314 526.094 426.585 533.992 432.446C544.672 440.156 554.651 448.795 563.813 458.264L565.536 460.115L560.548 462.485L560.465 462.548Z" fill="white"/>
</g>
<g style="mix-blend-mode:color-dodge">
<path d="M584.514 452.241C568.44 436.019 550.568 421.687 531.247 409.526C520.872 402.929 510.043 397.077 498.842 392.013C492.998 389.621 487.014 387.492 480.974 385.563C484.642 383.965 488.484 382.287 492.179 380.826C495.029 381.894 497.917 382.907 500.668 383.946C512.115 388.878 523.163 394.692 533.712 401.337C554.954 414.686 574.114 431.099 590.575 450.046L584.514 452.241Z" fill="white"/>
</g>
<g style="mix-blend-mode:color-dodge">
<path d="M570.592 372.44C582.322 375.654 593.695 380.06 604.532 385.588C623.28 400.026 640.258 416.634 655.111 435.066C653.08 435.888 651.005 436.599 648.896 437.196L646.932 434.822C624.202 410.901 598.553 389.941 570.592 372.44V372.44Z" fill="white"/>
</g>
<g style="mix-blend-mode:color-dodge">
<path d="M376.617 517.045C390.73 517.186 404.717 519.712 417.991 524.516C426.78 527.869 435.303 531.883 443.487 536.523L441.084 538.307C421.877 528.796 399.638 525.972 376.045 526.483C376.103 523.299 376.314 520.181 376.617 517.045Z" fill="white"/>
</g>
<g style="mix-blend-mode:color-dodge">
<path d="M377.888 507.047C378.804 501.706 380.044 496.425 381.599 491.234C413.494 492.363 443.466 500.298 468.102 518.484L465.066 520.672C440.033 506.871 409.79 504.481 377.888 507.047Z" fill="white"/>
</g>
<g style="mix-blend-mode:color-dodge">
<path d="M376.929 549.568C376.677 548.242 376.699 546.865 376.559 545.376C391.32 546.655 405.81 550.122 419.555 555.664L417.101 557.931C404.22 553.085 390.67 550.264 376.929 549.568Z" fill="white"/>
</g>
<g style="mix-blend-mode:color-dodge">
<path d="M510.582 453.097C484.766 437.12 455.879 426.771 425.804 422.724C429.351 419.492 433.013 416.616 436.669 413.458C470 417.791 501.319 431.861 526.719 453.91C532.856 459.094 538.542 464.793 543.713 470.945L538.393 473.804C529.695 466.163 520.395 459.238 510.582 453.097V453.097Z" fill="white"/>
</g>
<g style="mix-blend-mode:color-dodge">
<path d="M388.144 473.413C389.586 470.297 391.099 467.31 392.712 464.351C430.812 463.541 466.896 472.54 496.564 499.05L490.138 503.304C459.527 482.04 424.666 473.756 388.144 473.413Z" fill="white"/>
</g>
<g style="mix-blend-mode:color-dodge">
<path d="M404.131 446.786C405.755 444.63 407.424 442.466 409.157 440.384C449.349 443.628 487.509 457.583 517.506 486.067L513.95 488.259C483.062 462.549 444.482 449.621 404.131 446.786Z" fill="white"/>
</g>
</g>
<path d="M453.75 409.781C451.612 403.748 470.083 391.708 495.047 382.98C520.011 374.251 541.88 371.889 544.019 377.923C546.157 383.956 523.817 385.082 498.87 393.902C473.924 402.722 455.889 415.815 453.75 409.781Z" fill="white"/>
<path d="M388.519 514.733C382.918 511.631 386.348 494.829 396.107 477.249C405.867 459.669 418.341 447.918 423.942 451.02C429.543 454.121 408.369 462.887 406.332 482.786C402.526 517.277 394.083 517.889 388.519 514.733Z" fill="white"/>
</g>
<g style="mix-blend-mode:color-dodge" opacity="0.3">
<path d="M572.304 545.077C575.939 547.066 588.284 520.607 594.691 509.182C601.097 497.757 609.271 483.561 605.74 481.513C602.209 479.465 600.32 497.213 592.151 508.629C579.137 526.946 568.667 543.035 572.304 545.077Z" fill="white"/>
</g>
<path d="M546.189 503.823C549.117 499.863 311.21 319.536 14.9079 101.043L4.39313 115.37C300.749 333.86 543.208 507.785 546.189 503.823Z" fill="#B4703D"/>
<path d="M14.9087 101.043L4.39392 115.37C61.4613 157.46 116.512 197.844 168.229 235.902L178.144 222.303C126.829 183.795 71.9229 143.135 14.9087 101.043Z" fill="#030800"/>
<path d="M539.724 496.058C540.268 495.279 304.586 319.425 13.3194 103.163L11.3872 105.837C302.654 322.099 539.178 496.784 539.724 496.058Z" fill="#FCFBE6"/>
<defs>
<clipPath id="clip0_29527_48">
<rect width="304.739" height="226.15" fill="white" transform="matrix(-0.982371 0.18694 0.186545 0.982446 647.748 346.486)"/>
</clipPath>
</defs>
</svg>
